<!DOCTYPE svg PUBLIC "-//W3C//DTD SVG 1.1//EN" "http://www.w3.org/Graphics/SVG/1.1/DTD/svg11.dtd">
<!-- Uploaded to: SVG Repo, www.svgrepo.com, Transformed by: SVG Repo Mixer Tools -->
<svg width="218px" height="218px" viewBox="0 0 48.00 48.00" fill="none" xmlns="http://www.w3.org/2000/svg" stroke="#000000">
<g id="SVGRepo_bgCarrier" stroke-width="0"/>
<g id="SVGRepo_tracerCarrier" stroke-linecap="round" stroke-linejoin="round" stroke="#CCCCCC" stroke-width="0.576"> <rect width="48" height="48" fill="white" fill-opacity="0.01"/> <path d="M4 28C4 26.8954 4.89543 26 6 26H10V38H6C4.89543 38 4 37.1046 4 36V28Z" fill="#000000"/> <path d="M38 26H42C43.1046 26 44 26.8954 44 28V36C44 37.1046 43.1046 38 42 38H38V26Z" fill="#000000"/> <path d="M10 36V24C10 16.268 16.268 10 24 10C31.732 10 38 16.268 38 24V36M10 26H6C4.89543 26 4 26.8954 4 28V36C4 37.1046 4.89543 38 6 38H10V26ZM38 26H42C43.1046 26 44 26.8954 44 28V36C44 37.1046 43.1046 38 42 38H38V26Z" stroke="#000000" stroke-width="2.976" stroke-linecap="round" stroke-linejoin="round"/> <path d="M16 32H20L22 26L26 38L28 32H32" stroke="#000000" stroke-width="2.976" stroke-linecap="round" stroke-linejoin="round"/> </g>
<g id="SVGRepo_iconCarrier"> <rect width="48" height="48" fill="white" fill-opacity="0.01"/> <path d="M4 28C4 26.8954 4.89543 26 6 26H10V38H6C4.89543 38 4 37.1046 4 36V28Z" fill="#000000"/> <path d="M38 26H42C43.1046 26 44 26.8954 44 28V36C44 37.1046 43.1046 38 42 38H38V26Z" fill="#000000"/> <path d="M10 36V24C10 16.268 16.268 10 24 10C31.732 10 38 16.268 38 24V36M10 26H6C4.89543 26 4 26.8954 4 28V36C4 37.1046 4.89543 38 6 38H10V26ZM38 26H42C43.1046 26 44 26.8954 44 28V36C44 37.1046 43.1046 38 42 38H38V26Z" stroke="#000000" stroke-width="2.976" stroke-linecap="round" stroke-linejoin="round"/> <path d="M16 32H20L22 26L26 38L28 32H32" stroke="#000000" stroke-width="2.976" stroke-linecap="round" stroke-linejoin="round"/> </g>
</svg>